<?xml version="1.0" encoding="utf-8"?>
<!-- Generator: Adobe Illustrator 23.0.1, SVG Export Plug-In . SVG Version: 6.00 Build 0)  -->
<svg version="1.1" id="Layer_1" xmlns="http://www.w3.org/2000/svg" xmlns:xlink="http://www.w3.org/1999/xlink" x="0px" y="0px"
	 viewBox="0 0 257 95.4" style="enable-background:new 0 0 257 95.4;" xml:space="preserve">
<g id="xyBIB4.tif">
	<g>
		<g>
			<path d="M27.7,2c4.8,3.3,6.2,6.7,3.7,10.4c-0.9,1.4-2.9,2.5-4.5,2.8c-1,0.2-2.8-1.2-3.5-2.3c-0.5-0.9-0.3-2.8,0.4-3.6
				c0.6-0.8,2.2-0.8,3.4-1c0.3,0,0.7,0.6,1.3,1.2c-0.8,0.3-1.5,0.4-1.9,0.8c-0.6,0.5-1,1.1-1.5,1.7c0.8,0.4,1.6,1.2,2.3,1.1
				c2-0.3,2.7-2,2.8-3.8c0-2.1-0.9-3.8-3.1-4.6c-2.4-0.8-5.6,0.3-7.3,2.4c-1.8,2.3-1.8,4.7-0.1,7.2c0.9,1.3,2.3,2.4,2.9,3.8
				c0.8,1.9,1.1,4,1.4,6.1c0.1,0.4-0.9,1-1.4,1.5c-0.2-0.6-0.5-1.2-0.7-1.8c-0.5-1.8-0.6-4-1.6-5.4C14.2,9.9,14.8,6.7,23.9,2
				C25.2,2,26.4,2,27.7,2z"/>
			<path d="M2.2,21.5c1.6-1.8,3-3.8,4.9-5.2c2.6-1.8,5.7-1.3,8,0.8c2.5,2.3,3.7,6.3,2.6,8.8c-0.3,0.6-0.9,0.9-1.4,1.4
				c-0.2-0.7-0.5-1.5-0.4-2.2c0.5-3.3-1.2-6.7-4-7.4C9,17,5.4,18.9,4.8,21.8c-0.3,1.4,0.3,3.5,1.3,4.4c0.9,0.8,2.9,0.6,4.4,0.4
				c0.5-0.1,1.2-1.6,1.1-2.3c-0.1-0.6-1.3-0.9-2.1-1.3c-0.6-0.3-1.2-0.4-1.8-0.6C8.3,22,8.7,21.2,9.3,21c2.1-0.7,3.5,0.4,4.3,2.1
				c1,2,0.4,4.2-1.5,5.4c-2.9,1.9-6.6,1.1-8.6-1.7c-0.5-0.7-0.8-1.4-1.2-2.1C2.2,23.7,2.2,22.6,2.2,21.5z"/>
			<path d="M118,93c-8.9,0.2-16.3-6.9-16.5-15.8c-0.2-9.6,6.9-16.9,16.8-17c8.7-0.1,16.1,7.3,16.2,16.2
				C134.7,85.6,127.6,92.8,118,93z M111.5,76.6c0,3.7,3,6.8,6.6,6.7c3.3,0,6.5-3.2,6.6-6.6c0-3.4-3.1-6.5-6.6-6.5
				C114.5,70.2,111.6,73,111.5,76.6z"/>
			<path d="M145.6,44.2c0,2.2,0,4.5,0,6.7c-0.1,3.3-2,5.2-5,5.2c-3,0-4.9-2-4.9-5.2c0-7,0-14.1,0-21.1c0-2.4,1.1-4.1,3.4-5
				c2.3-0.9,4,0.1,5.5,1.8c2.3,2.7,4.5,5.5,6.7,8.2c0.5,0.6,1,1.1,1.6,1.7c0.2-0.1,0.5-0.1,0.7-0.2c0-2,0-4,0-6
				c0.1-3.3,1.9-5.5,4.6-5.7c2.6-0.2,5.1,2,5.2,5.2c0.2,7.2,0.1,14.4,0,21.7c0,2.1-1.1,3.9-3.2,4.5c-2.3,0.6-4.3,0.1-5.8-1.9
				c-2-2.7-4.1-5.3-6.2-7.9c-0.6-0.8-1.2-1.5-1.9-2.2C146.1,44,145.9,44.1,145.6,44.2z"/>
			<path d="M225.2,44.2c0,2.3,0.1,4.6,0,6.9c-0.1,2.1-0.9,4.2-3.1,4.6c-1.7,0.3-3.7-0.1-5.2-0.9c-0.9-0.5-1.5-2.4-1.5-3.7
				c-0.1-7.1-0.1-14.2-0.1-21.4c0-2.5,1.1-4.1,3.4-4.9c2.2-0.8,3.9,0.1,5.2,1.7c2.8,3.3,5.5,6.6,8.2,9.9c0.3,0,0.6-0.1,0.9-0.1
				c0-2.1-0.2-4.1,0.1-6.1c0.2-1.4,0.6-3.3,1.6-4c1.2-0.9,3.3-1.5,4.6-1c1.4,0.5,3,2.3,3.2,3.7c0.5,3.9,0.3,7.9,0.3,11.9
				c0,3.2,0,6.5,0,9.7c0,2.4-0.4,4.6-3,5.5c-2.6,0.9-4.7-0.1-6.3-2.3c-2.4-3.3-5-6.4-7.5-9.6C225.8,44,225.5,44.1,225.2,44.2z"/>
			<path d="M154.8,72.4c0-2.1-0.1-4.3,0-6.4c0.2-3.6,2.2-5.6,5.1-5.4c2.9,0.1,4.8,2.3,4.8,5.7c0.1,6.9,0,13.7,0,20.6
				c0,2.4-0.8,4.2-3.2,5.1c-2.5,0.9-4.4,0-5.9-2c-2.1-2.7-4.2-5.4-6.4-8.1c-0.5-0.7-1.1-1.3-1.6-1.9c-0.3,0.1-0.5,0.1-0.8,0.2
				c0,2.2,0,4.4,0,6.6c-0.1,3.5-1.8,5.5-4.8,5.6c-3,0-4.9-1.7-4.9-5.2c-0.1-7.1-0.1-14.2,0-21.4c0-2.4,1-4.2,3.4-4.9
				c2.4-0.8,4.2,0.3,5.7,2.1c2.6,3.2,5.2,6.4,7.9,9.6C154.3,72.5,154.5,72.5,154.8,72.4z"/>
			<path d="M71.1,76.6c0-3.4,0-6.8,0-10.3c0-3.5,1.4-5.2,4.7-5.4c3.9-0.2,8-0.3,11.9,0.3c6.9,1,12.4,8.2,12.3,15.4
				c-0.1,7.6-5.8,14.3-13.2,15.1c-3.5,0.4-7,0.5-10.5,0.3c-4-0.2-5.2-1.8-5.2-5.7C71.1,83.1,71.1,79.9,71.1,76.6z M81.4,82.9
				c3.3,0.2,6.1,0.1,7.8-3c1.3-2.4,1.3-4.6-0.2-6.8c-1.8-2.5-4.4-3.1-7.5-2.7C81.4,74.5,81.4,78.6,81.4,82.9z"/>
			<path d="M71.2,40.3c0-3.6,0-7.2,0-10.8c0-2.3,1.1-4.1,3.2-4.3c5.4-0.5,10.9-1.1,16,1.1c6.9,3,10.4,10,9.1,17.3
				c-1.3,7-7.6,12.2-15.3,12.5c-2.7,0.1-5.4,0.1-8.1,0c-3.1-0.1-4.8-1.8-4.9-4.9C71.1,47.5,71.2,43.9,71.2,40.3z M80.7,40.3
				C80.8,40.3,80.8,40.3,80.7,40.3c0,1.6-0.2,3.3,0.1,4.8c0.1,0.7,1.3,1.7,2,1.8c3.4,0.2,6.3-2.2,6.8-5.3c0.6-3.7-1.3-6.5-5-7.5
				c-3.3-0.9-3.9-0.5-3.9,2.9C80.7,38.1,80.7,39.2,80.7,40.3z"/>
			<path d="M53.5,92.7c3.3-2.6,5.9-5.2,6.3-9.2c0.2-1.8,0.1-3.8-0.4-5.6c-2.6-9.5-5.3-18.9-7.9-28.3c-0.3-0.9-0.4-2.2,0.1-3
				c1.2-2.1,1-4,0.1-6.2c-1.9-4.5-3.6-9-5.3-13.6c-0.3-0.7-0.5-1.5-0.7-2.4c4.6,0,9-0.3,13.3,0.1c2.8,0.3,4.9,3.6,4.9,6.8
				c0.1,18.1,0.1,36.3,0,54.4C63.8,90.5,59.7,93.2,53.5,92.7z"/>
			<path d="M40.1,94c-4.3-0.2-7.8-1.6-9.9-6c-4.3-8.7-8.9-17.3-13.4-25.9c-0.5-1-1.5-2.2-2.5-2.4c-2-0.5-2.8-1.6-3.5-3.3
				C8.9,51.5,7,46.6,5,41.8c-0.8-1.8-0.4-3.1,0.8-4.4c0.8-0.8,1.6-1.5,2.4-2.1c8.8-6.2,18.5-10,29.2-11.5c3.9-0.5,5.1,0.3,6.5,3.9
				c1.8,4.6,3.7,9.2,5.4,13.9c0.4,1.1,0.6,2.8,0,3.5c-1.4,1.7-0.9,3.3-0.4,5c2.7,9.4,5.3,18.9,8.1,28.3c1.3,4.6-0.1,8.2-3.7,11
				C49.5,92.4,45.1,93.8,40.1,94z M18.4,59.6c0.1,0.6,0.1,0.9,0.2,1.2C23.3,70,28,79.3,33,88.3c0.8,1.5,3,2.7,4.8,3
				c5.1,0.9,9.9-0.5,14-3.6c3.1-2.3,4.4-5.3,3.2-9.3c-1.7-5.5-3.1-11.1-4.7-16.6c-1.3-4.4-2.6-8.8-4-13.3
				C37.6,54.4,28.5,58.1,18.4,59.6z M8,43.5c1.7,4.4,3.4,8.7,5.2,12.8c0.3,0.6,1.7,1.1,2.5,1c3.6-0.4,7.2-0.7,10.6-1.6
				c7.1-2,13.7-5.1,19.4-9.8c0.9-0.8,2.1-2.4,1.8-3.2c-1.4-4.3-3.3-8.5-5.1-12.8C32.2,37.7,21,42.2,8,43.5z M41.4,26.1
				C32,24.6,8.8,34.3,6.6,40.9c1.8-0.4,3.6-0.3,4.8-1.1c7.9-5.1,16.4-8.7,25.7-10.3C38.9,29.2,40.5,28.3,41.4,26.1z"/>
			<path d="M3.3,44.9c1.7,4.2,3.2,8.6,5.2,12.7c0.8,1.7,2.7,2.9,4.1,4.3c0.6,0.6,1.6,1,2,1.7c5,9.6,9.9,19.2,15.1,29.2
				c-3.5,0-6.7,0-9.9,0c-3.5-0.1-7.1,0.1-10.5-0.4c-4.2-0.6-6.3-3.3-6.3-7.5c0-13.3,0-26.5,0-39.8C3,45,3.1,45,3.3,44.9z"/>
			<path d="M168.6,73.5c0-2.7-0.1-5.4,0-8.1c0.1-2.5,2-4.4,4.4-4.7c2.5-0.3,4.6,1.1,5.2,3.7c0.3,1,0.4,2.1,0.4,3.2
				c0,3.8,0,7.6,0,11.4c0,2.2,0.5,4.2,3.1,4.2c2.5,0,3.2-1.9,3.2-4.1c0-3.8,0-7.6,0-11.4c0-0.7,0-1.4,0-2.2c0.2-2.7,2.4-4.8,4.9-4.8
				c2.6,0,5,1.9,5,4.7c0,5.8-0.1,11.5-0.5,17.3c-0.4,4.8-6.1,11-13.8,10.4c-6.2-0.5-11.7-5.8-11.9-11.9
				C168.6,78.5,168.7,76,168.6,73.5C168.6,73.5,168.6,73.5,168.6,73.5z"/>
			<path d="M179,45.5c-0.1,1.8-0.1,3.7-0.3,5.5c-0.2,3.5-1.8,5.1-5,5.1c-2.9,0-4.5-1.6-4.6-4.9c-0.1-7.2-0.1-14.4,0-21.7
				c0.1-3.1,2.2-5.2,4.8-5.1c2.7,0.1,4.6,2.2,4.8,5.2c0.1,1.7,0.2,3.5,0.3,5.2c0.2,0.1,0.5,0.1,0.7,0.2c1.9-2.7,3.6-5.5,5.6-8.2
				c2.4-3.3,6.8-3.1,8.3,0.5c0.6,1.3,0.3,3.4-0.3,4.8c-0.9,2.1-2.4,4-3.9,5.8c-1.1,1.5-1.2,2.6,0.1,4c1.7,2,3.3,4,4.9,6.1
				c1.8,2.4,1.4,5.3-0.7,7c-2.1,1.7-5.2,1.2-7.1-1.2c-2.3-2.9-4.6-5.8-6.9-8.6C179.6,45.4,179.3,45.5,179,45.5z"/>
			<path d="M104.3,37.2c0-2.5,0-5.1,0-7.6c0.1-2.7,1.7-4.6,4.3-5c2.4-0.4,4.8,1.2,5.2,4c0.4,2.7,0.3,5.6,0.3,8.4c0,2.2,0,4.3,0,6.5
				c0,2,0.9,3.5,2.9,3.6c2.2,0.1,3.3-1.5,3.3-3.5c0.1-4.4,0-8.8,0.1-13.3c0-3.3,2.1-5.7,4.8-5.7c2.8,0,5.1,2.3,5,5.6
				c-0.1,5.5,0.1,11-0.6,16.5c-0.9,6.7-7.1,10.7-14.4,10c-5.9-0.5-11-6.2-11.1-12.3C104.2,41.9,104.3,39.5,104.3,37.2z"/>
			<path d="M234.5,93.1c-3.8-0.1-7.4-1-10-4c-1.4-1.7-2.2-3.9-0.9-5.7c0.9-1.2,2.8-2,4.4-2.3c0.9-0.2,2.1,0.8,3.1,1.3
				c0.9,0.5,1.5,1.4,2.4,1.6c0.7,0.2,1.9-0.1,2.2-0.6c0.3-0.5,0-1.9-0.5-2.2c-1.2-0.8-2.6-1.2-3.9-1.7c-6.2-2.3-8.6-6.1-7.2-11.7
				c1.2-4.9,6.6-8.4,12.2-7.5c2.4,0.4,4.9,1.3,6.9,2.7c2.4,1.5,2.6,4.8,1.1,6.7c-1.3,1.6-3.8,1.7-6.1,0.1c-0.8-0.5-1.5-1.2-2.3-1.4
				c-0.7-0.2-1.5,0.3-2.3,0.4c0.3,0.7,0.4,1.9,0.9,2.2c1.8,1,3.9,1.5,5.7,2.4c6.1,2.9,8,9.2,4.7,14.9
				C242.5,92.2,238.8,93.3,234.5,93.1z"/>
			<path d="M215,70.3c0,5.7,0.1,11.1,0,16.5c-0.1,4.7-4.2,7.4-7.6,4.7c-1.3-1-2.2-3.3-2.3-5c-0.3-5.3-0.1-10.6-0.1-16.1
				c-1.5-0.1-2.8-0.2-4.1-0.4c-2.7-0.4-4.1-2.1-4.1-4.6c0-2.4,1.5-4.2,4.2-4.3c5.8-0.2,11.5-0.2,17.3,0c3.1,0.1,4.8,2,4.8,4.5
				c0,2.4-1.9,4.2-4.8,4.5C217.3,70.2,216.4,70.2,215,70.3z"/>
			<path d="M209.5,40.5c0,3.4,0,6.8,0,10.3c0,3.3-1.9,5.3-4.8,5.3c-3,0-5-1.8-5-5.1c-0.1-7-0.1-14,0-21.1c0-3.3,2.3-5.4,5.2-5.5
				c2.6,0,4.6,2.4,4.7,5.5C209.6,33.5,209.5,37,209.5,40.5z"/>
			<path d="M256,30.5c-0.7,2-1.2,4.1-2.3,5.9c-0.6,0.9-2.2,1.8-3.2,1.6c-1-0.1-2.6-1.4-2.7-2.4c-0.4-2.5-0.5-5.2-0.1-7.7
				c0.3-2,1.8-3.6,4.2-3.3C254.2,24.9,255.7,27.3,256,30.5z"/>
			<path d="M2.8,36.3c0-1.6,0-2.8,0-3.9c0-0.5,0.1-1,0.2-1.7c1.3,0.6,2.4,1.1,3.8,1.8C5.6,33.7,4.4,34.8,2.8,36.3z"/>
			<path d="M46.3,62.9c-1,2-1.4,3.6-2.4,4.7c-2.6,2.9-4.5,2.4-5.9-1.2c-0.2-0.5-0.5-1-0.6-1.5c-0.2-1.3-0.8-3.6-0.4-3.8
				c1.8-1,3.9-2,5.9-1.8C44.1,59.4,45.1,61.5,46.3,62.9z M41,66c0.3,0,0.6,0.1,1,0.1c0.3-1,1-2.1,0.8-3c-0.1-0.6-1.6-0.9-2.4-1.3
				c-0.2,0.2-0.4,0.5-0.6,0.7C40.2,63.7,40.6,64.9,41,66z"/>
			<path d="M26.5,63.9c2.9-0.2,5-0.8,7-0.4c2.7,0.5,3.8,2.9,3.2,5.3c-0.4,1.7-3.5,3.7-5.3,3.4c-0.6-0.1-1.3-0.5-1.5-1
				C28.8,69.1,27.8,66.9,26.5,63.9z M29.9,66.3c1.1,1.2,2,2.2,2.9,3.1c0.5-0.7,1.4-1.6,1.3-2.2C33.6,65.7,32.4,65.1,29.9,66.3z"/>
		</g>
	</g>
</g>
</svg>
