<?xml version="1.0" encoding="utf-8"?>
<!-- Generator: Adobe Illustrator 23.0.1, SVG Export Plug-In . SVG Version: 6.00 Build 0)  -->
<svg version="1.1" id="Layer_1" xmlns="http://www.w3.org/2000/svg" xmlns:xlink="http://www.w3.org/1999/xlink" x="0px" y="0px"
	 viewBox="0 0 284.6 286.3" style="enable-background:new 0 0 284.6 286.3;" xml:space="preserve">
<style type="text/css">
	.st0{fill:#FEFEFE;}
	.st1{fill:#020202;}
	.st2{fill:#FFFFFF;}
	.st3{fill:#9D9D9D;}
	.st4{fill:#1D1D1D;}
</style>
<g>
	<g>
		<path class="st0" d="M0.1,139c0-46.3,0-92.6,0-139c95,0,189.9,0,284.9,0c0,95.5,0,191,0,286.6c-14.5,0-29,0-43.4,0
			c0-0.1,0-0.2,0-0.3c0-0.5,0-1,0-1.6c0-42,0-84,0-126c0-0.5,0-1,0-1.6c0.6,0,1.1,0,1.6,0c6.2,0,12.5,0.1,18.7,0
			c2.5,0,5-0.2,7.4-0.7c7-1.4,13.4-5.9,14.2-14.8c0.2-2.5-0.5-3.4-3-3.4c-18.8,0-37.7,0-56.5,0c-0.4,0-0.8,0-1.3,0.1
			c0,43.1,0,86.2,0,129.2c-14.6,0-29,0-43.6,0c0-27.8,0-55.6,0-83.4c-25,0-49.8,0-74.7,0c0,27.8,0,55.6,0,83.4c-14.5,0-29,0-43.5,0
			c0-43.1,0-86.1,0-129.3c-13,0-26,0-39.2,0c0.8-0.8,1.3-1.5,1.9-2C61.8,98,100,59.7,138.3,21.5c0.5-0.5,1-0.9,1.5-1.4
			c1.5-1.2,2.6-1.2,4,0c1.4,1.2,2.7,2.6,4,3.9c2.5,2.3,5,4.6,7.5,7c4.2-4.2,8.6-8.7,13-13.2c-1.3-1.3-2.3-2.4-3.4-3.5
			c-3-2.9-5.9-6-9.1-8.7c-5.3-4.5-11.5-6.4-18.4-4.9c-4.9,1-8.9,3.7-12.3,7.2C86.2,46.9,47.2,85.8,8.4,124.8c-2,2-3.9,4.3-5.4,6.8
			C1.6,133.9,1,136.5,0.1,139z M185.3,77.8c2.8-2.9,5.7-5.8,8.5-8.7c1.6-1.7,1.8-2.6,0.7-4.7c-1.2-2.5-0.8-4.3,1.3-6
			c0.8-0.6,1.6-1.3,2.2-2.1c1-1.3,2.1-1.6,3.8-1.1c2.8,0.9,5.2,2.2,7.3,4.4c4.1,4.4,8.4,8.6,12.7,12.9
			c15.6,15.7,31.3,31.3,46.9,46.9c0.2,0.2,0.5,0.5,0.8,0.7c5.1-5.2,10-10.2,14.9-15.2c-1.4-1.3-2.9-2.7-4.4-4.2
			c-4.6-4.6-9.1-9.2-13.7-13.8c-9.6-9.6-19.2-19.3-28.8-28.9c-4.9-4.9-9.8-9.8-14.7-14.7c-1.3-1.3-2-2.7-2.2-4.5
			c-0.3-2.8-0.6-5.7-1.2-8.4c-0.7-2.9,0.2-5.1,2.3-7c2.6-2.4,5.8-3.8,9.2-4.5c4.8-0.9,9.5-1.9,14.3-2.8c0.3-0.1,0.8-0.3,0.8-0.6
			c0.1-0.3-0.1-0.7-0.4-1c-0.9-0.9-1.9-1.8-2.8-2.6c-3.1-2.8-6-5.8-9.2-8.4c-3.4-2.7-7.4-3.8-11.7-2.7c-3.3,0.8-5.9,2.7-8.3,5
			c-7.8,7.8-15.6,15.7-23.5,23.5c-1.2,1.2-2.4,2.3-3.5,3.5c-2,2-2.2,3.4-0.9,5.9c1,2,0.7,3.4-0.9,4.8c-0.9,0.8-1.7,1.6-2.5,2.5
			c-1,1.1-2.1,1.7-3.6,1.3c-0.9-0.3-1.9-0.7-2.8-1.1c-1.2-0.5-2.1-0.4-3,0.5c-2.6,2.6-5.3,5.2-8,7.8c-0.5,0.5-1.1,1-1.5,1.3
			C170.9,63.4,178.1,70.6,185.3,77.8z"/>
		<path class="st1" d="M0.1,139c0.9-2.5,1.5-5.2,2.8-7.4c1.4-2.5,3.4-4.8,5.4-6.8C47.2,85.8,86.2,46.9,125.1,8
			c3.5-3.5,7.5-6.2,12.3-7.2c6.9-1.5,13.1,0.4,18.4,4.9c3.2,2.7,6.1,5.8,9.1,8.7c1.1,1.1,2.1,2.2,3.4,3.5c-4.4,4.5-8.9,9-13,13.2
			c-2.6-2.4-5.1-4.7-7.5-7c-1.4-1.3-2.6-2.7-4-3.9c-1.4-1.2-2.5-1.2-4,0c-0.5,0.4-1,0.9-1.5,1.4C100,59.7,61.8,98,23.5,136.2
			c-0.6,0.6-1.1,1.2-1.9,2c13.2,0,26.1,0,39.2,0c0,43.2,0,86.2,0,129.3c14.5,0,28.9,0,43.5,0c0-27.8,0-55.5,0-83.4
			c24.9,0,49.8,0,74.7,0c0,27.8,0,55.6,0,83.4c14.6,0,29,0,43.6,0c0-43,0-86.1,0-129.2c0.5,0,0.9-0.1,1.3-0.1c18.8,0,37.7,0,56.5,0
			c2.5,0,3.2,0.9,3,3.4c-0.8,8.9-7.1,13.4-14.2,14.8c-2.4,0.5-4.9,0.6-7.4,0.7c-6.2,0.1-12.5,0-18.7,0c-0.5,0-1,0-1.6,0
			c0,0.6,0,1.1,0,1.6c0,42,0,84,0,126c0,0.5,0,1,0,1.6c-0.5,0-1,0-1.4,0c-26.1,0-52.1,0-78.2,0c-0.5,0-1,0-1.4,0c0-0.5,0-1,0-1.6
			c0-26.8,0-53.5,0-80.3c0-0.5,0-1,0-1.6c-0.6,0-1.1,0-1.5,0c-11.4,0-22.9,0-34.3,0c-1.6,0-1.6,0-1.6,1.6c0,26.7,0,53.4,0,80.1
			c0,0.6,0,1.1-0.1,1.7c-26.9,0-53.9,0-80.8,0c0-0.5,0-1,0-1.6c0-41.9,0-83.8,0-125.8c0-0.5,0-1,0-1.6c-0.6-0.1-1.1-0.2-1.7-0.3
			c-1.8-0.1-3.5-0.1-5.3-0.1c-2,0-4,0-6,0c-5.3,0.1-10.6,0.4-15.9-0.9c-6-1.5-10.6-4.7-12.6-10.9c-0.2-0.7-0.4-1.5-0.6-2.3
			C0.1,141.7,0.1,140.4,0.1,139z"/>
		<path class="st2" d="M0.1,143.1c0.2,0.8,0.4,1.5,0.6,2.3c2,6.2,6.6,9.4,12.6,10.9c5.2,1.3,10.6,1,15.9,0.9c2,0,4,0,6,0
			c1.8,0,3.5,0,5.3,0.1c0.5,0,1,0.2,1.7,0.3c0,0.5,0,1.1,0,1.6c0,41.9,0,83.8,0,125.8c0,0.5,0,1,0,1.6c0,0.1,0,0.2,0,0.2
			c-14,0-28,0-42,0C0.1,238.8,0.1,190.9,0.1,143.1z"/>
		<path class="st2" d="M123,286.4c0-0.6,0.1-1.1,0.1-1.7c0-26.7,0-53.4,0-80.1c0-1.6,0-1.6,1.6-1.6c11.4,0,22.9,0,34.3,0
			c0.4,0,0.9,0,1.5,0c0,0.6,0,1.1,0,1.6c0,26.8,0,53.5,0,80.3c0,0.5,0,1,0,1.6c0,0.1,0,0.2,0,0.3c-12.5,0-25,0-37.4,0
			C123,286.5,123,286.5,123,286.4z"/>
		<path class="st1" d="M185.3,77.8c-7.2-7.2-14.4-14.5-21.7-21.9c0.4-0.4,1-0.8,1.5-1.3c2.7-2.6,5.3-5.2,8-7.8
			c0.9-0.9,1.9-1.1,3-0.5c0.9,0.4,1.8,0.8,2.8,1.1c1.5,0.4,2.6-0.1,3.6-1.3c0.8-0.9,1.6-1.7,2.5-2.5c1.6-1.4,1.9-2.8,0.9-4.8
			c-1.2-2.5-1-3.9,0.9-5.9c1.1-1.2,2.3-2.3,3.5-3.5c7.8-7.8,15.6-15.7,23.5-23.5c2.3-2.3,5-4.2,8.3-5c4.3-1.1,8.3,0,11.7,2.7
			c3.2,2.6,6.1,5.6,9.2,8.4c0.9,0.9,1.9,1.7,2.8,2.6c0.2,0.2,0.5,0.7,0.4,1c-0.1,0.3-0.5,0.6-0.8,0.6c-4.8,1-9.5,1.9-14.3,2.8
			c-3.5,0.7-6.6,2-9.2,4.5c-2.1,2-3,4.1-2.3,7c0.6,2.7,0.9,5.6,1.2,8.4c0.2,1.8,1,3.3,2.2,4.5c4.9,4.9,9.8,9.8,14.7,14.7
			c9.6,9.6,19.2,19.3,28.8,28.9c4.6,4.6,9.1,9.2,13.7,13.8c1.5,1.5,3,2.9,4.4,4.2c-4.9,5-9.9,10.1-14.9,15.2
			c-0.3-0.3-0.6-0.5-0.8-0.7c-15.6-15.6-31.3-31.3-46.9-46.9c-4.3-4.3-8.6-8.5-12.7-12.9c-2.1-2.2-4.4-3.5-7.3-4.4
			c-1.7-0.5-2.8-0.3-3.8,1.1c-0.6,0.8-1.4,1.4-2.2,2.1c-2.1,1.8-2.5,3.6-1.3,6c1,2.1,0.9,3-0.7,4.7C191,72,188.2,74.9,185.3,77.8z"
			/>
	</g>
</g>
</svg>
