<?xml version="1.0" encoding="utf-8"?>
<svg version="1.1" id="Layer_1" xmlns="http://www.w3.org/2000/svg" xmlns:xlink="http://www.w3.org/1999/xlink" x="0px" y="0px"
	 viewBox="0 0 284.64 286.32" style="enable-background:new 0 0 284.64 286.32;" xml:space="preserve">
<style type="text/css">
	.st0{fill:#FEFEFE;}
	.st1{fill:#020202;}
	.st2{fill:#FFFFFF;}
	.st3{fill:#9D9D9D;}
	.st4{fill:#1D1D1D;}
</style>
<g>
	<g>
		<path class="st0" d="M0.14,139.03c0-46.32,0-92.64,0-138.96c94.96,0,189.92,0,284.88,0c0,95.52,0,191.04,0,286.56
			c-14.48,0-28.96,0-43.44,0c-0.01-0.09-0.03-0.19-0.04-0.28c0.01-0.52,0.02-1.03,0.02-1.55c0-42,0-84,0-126c0-0.5,0-1.01,0-1.58
			c0.65,0,1.12,0,1.6,0c6.24,0,12.48,0.06,18.72-0.03c2.46-0.04,4.96-0.21,7.38-0.69c7.05-1.38,13.39-5.87,14.17-14.8
			c0.22-2.5-0.47-3.39-3.01-3.39c-18.84,0-37.68,0.01-56.52,0.02c-0.39,0-0.77,0.04-1.3,0.07c0,43.14,0,86.19,0,129.23
			c-14.58,0-29.01,0-43.58,0c0-27.83,0-55.6,0-83.41c-24.97,0-49.79,0-74.73,0c0,27.84,0,55.61,0,83.38c-14.54,0-28.95,0-43.45,0
			c0-43.12,0-86.14,0-129.33c-13.04,0-25.99,0-39.18,0c0.76-0.82,1.31-1.45,1.9-2.05c38.24-38.24,76.48-76.48,114.72-114.72
			c0.48-0.48,0.98-0.95,1.51-1.37c1.46-1.17,2.55-1.22,3.97,0.02c1.41,1.24,2.67,2.64,4.03,3.93c2.46,2.33,4.96,4.62,7.55,7.03
			c4.16-4.22,8.59-8.72,13.03-13.21c-1.28-1.3-2.33-2.39-3.42-3.45c-3.01-2.93-5.88-6.02-9.08-8.72c-5.31-4.48-11.45-6.37-18.4-4.91
			c-4.9,1.03-8.86,3.7-12.35,7.19C86.17,46.91,47.24,85.82,8.36,124.78c-2.04,2.05-3.95,4.35-5.4,6.84
			C1.65,133.87,1.05,136.54,0.14,139.03z M185.32,77.83c2.84-2.91,5.68-5.82,8.53-8.73c1.62-1.66,1.77-2.61,0.72-4.7
			c-1.23-2.45-0.84-4.25,1.26-6.05c0.76-0.65,1.56-1.28,2.16-2.06c1.05-1.35,2.12-1.61,3.82-1.07c2.82,0.89,5.2,2.22,7.25,4.39
			c4.15,4.39,8.45,8.63,12.71,12.9c15.62,15.65,31.26,31.3,46.89,46.94c0.25,0.25,0.52,0.47,0.84,0.75
			c5.05-5.15,10.04-10.24,14.93-15.23c-1.38-1.32-2.9-2.72-4.37-4.18c-4.58-4.58-9.14-9.19-13.71-13.77
			c-9.6-9.63-19.21-19.25-28.81-28.88c-4.89-4.9-9.76-9.81-14.66-14.69c-1.27-1.26-2.01-2.72-2.22-4.52
			c-0.32-2.81-0.55-5.66-1.19-8.41c-0.67-2.94,0.23-5.09,2.33-7.04c2.64-2.45,5.77-3.79,9.25-4.46c4.77-0.92,9.54-1.86,14.3-2.82
			c0.32-0.07,0.76-0.35,0.84-0.62c0.08-0.27-0.15-0.74-0.38-0.97c-0.9-0.91-1.85-1.76-2.79-2.63c-3.05-2.82-5.99-5.78-9.2-8.4
			c-3.38-2.75-7.36-3.81-11.69-2.74c-3.27,0.81-5.94,2.7-8.29,5.05c-7.83,7.83-15.65,15.69-23.47,23.53
			c-1.16,1.16-2.36,2.27-3.5,3.45c-1.98,2.04-2.18,3.4-0.93,5.92c0.98,1.97,0.68,3.37-0.93,4.8c-0.89,0.79-1.73,1.65-2.51,2.54
			c-0.99,1.12-2.15,1.68-3.61,1.25c-0.95-0.28-1.88-0.65-2.77-1.07c-1.16-0.54-2.1-0.41-3.03,0.52c-2.63,2.63-5.31,5.21-7.98,7.8
			c-0.53,0.52-1.11,0.99-1.51,1.34C170.95,63.35,178.12,70.58,185.32,77.83z"/>
		<path class="st1" d="M0.14,139.03c0.91-2.49,1.51-5.16,2.83-7.41c1.45-2.49,3.35-4.79,5.4-6.84
			C47.24,85.82,86.17,46.91,125.09,7.99c3.48-3.48,7.45-6.16,12.35-7.19c6.95-1.46,13.1,0.44,18.4,4.91c3.2,2.7,6.08,5.79,9.08,8.72
			c1.09,1.06,2.13,2.15,3.42,3.45c-4.43,4.49-8.87,9-13.03,13.21c-2.59-2.41-5.08-4.7-7.55-7.03c-1.37-1.29-2.62-2.7-4.03-3.93
			c-1.41-1.24-2.5-1.19-3.97-0.02c-0.53,0.42-1.03,0.89-1.51,1.37C100.02,59.73,61.78,97.97,23.54,136.21
			c-0.59,0.59-1.14,1.23-1.9,2.05c13.19,0,26.14,0,39.18,0c0,43.19,0,86.21,0,129.33c14.5,0,28.91,0,43.45,0
			c0-27.76,0-55.54,0-83.38c24.95,0,49.77,0,74.73,0c0,27.81,0,55.58,0,83.41c14.58,0,29.01,0,43.58,0c0-43.05,0-86.1,0-129.23
			c0.53-0.03,0.92-0.07,1.3-0.07c18.84-0.01,37.68-0.01,56.52-0.02c2.55,0,3.23,0.89,3.01,3.39c-0.78,8.92-7.12,13.42-14.17,14.8
			c-2.41,0.47-4.91,0.65-7.38,0.69c-6.24,0.09-12.48,0.03-18.72,0.03c-0.48,0-0.95,0-1.6,0c0,0.58,0,1.08,0,1.58c0,42,0,84,0,126
			c0,0.52-0.02,1.03-0.02,1.55c-0.48,0.01-0.96,0.04-1.44,0.04c-26.06,0-52.11,0-78.17,0c-0.48,0-0.96-0.03-1.44-0.04
			c-0.01-0.52-0.02-1.04-0.02-1.56c0-26.75,0-53.5,0-80.25c0-0.5,0-1,0-1.59c-0.62,0-1.05,0-1.48,0c-11.44,0-22.87,0-34.31,0
			c-1.59,0-1.59,0-1.59,1.64c0,26.71,0,53.42,0,80.13c0,0.56-0.04,1.12-0.07,1.67c-26.95,0-53.9,0-80.85-0.01
			c-0.01-0.52-0.04-1.04-0.04-1.56c0-41.92,0-83.84,0-125.76c0-0.51,0-1.02,0-1.56c-0.63-0.1-1.14-0.25-1.65-0.26
			c-1.75-0.05-3.51-0.06-5.26-0.08c-2-0.01-3.99-0.05-5.99,0c-5.31,0.12-10.65,0.39-15.86-0.9c-6.02-1.48-10.61-4.72-12.63-10.88
			c-0.24-0.75-0.41-1.52-0.61-2.29C0.14,141.75,0.14,140.39,0.14,139.03z"/>
		<path class="st2" d="M0.14,143.11c0.2,0.76,0.36,1.54,0.61,2.29c2.02,6.16,6.61,9.4,12.63,10.88c5.22,1.28,10.55,1.02,15.86,0.9
			c2-0.05,3.99-0.01,5.99,0c1.75,0.01,3.51,0.03,5.26,0.08c0.51,0.01,1.02,0.16,1.65,0.26c0,0.54,0,1.05,0,1.56
			c0,41.92,0,83.84,0,125.76c0,0.52,0.02,1.04,0.04,1.56c-0.01,0.08-0.03,0.16-0.04,0.25c-14,0-28,0-42,0
			C0.14,238.79,0.14,190.95,0.14,143.11z"/>
		<path class="st2" d="M123.02,286.39c0.02-0.56,0.07-1.12,0.07-1.67c0-26.71,0-53.42,0-80.13c0-1.64,0-1.64,1.59-1.64
			c11.44,0,22.87,0,34.31,0c0.43,0,0.87,0,1.48,0c0,0.59,0,1.09,0,1.59c0,26.75,0,53.5,0,80.25c0,0.52,0.02,1.04,0.02,1.56
			c-0.01,0.09-0.03,0.19-0.04,0.28c-12.48,0-24.96,0-37.44,0C123.02,286.55,123.02,286.47,123.02,286.39z"/>
		<path class="st3" d="M160.46,286.63c0.01-0.09,0.03-0.19,0.04-0.28c0.48,0.01,0.96,0.04,1.44,0.04c26.06,0,52.11,0,78.17,0
			c0.48,0,0.96-0.03,1.44-0.04c0.01,0.09,0.03,0.19,0.04,0.28C214.54,286.63,187.5,286.63,160.46,286.63z"/>
		<path class="st4" d="M123.02,286.39c0,0.08,0,0.16-0.01,0.24c-26.96,0-53.92,0-80.88,0c0.01-0.08,0.03-0.16,0.04-0.25
			C69.12,286.38,96.07,286.38,123.02,286.39z"/>
		<path class="st1" d="M185.32,77.83c-7.2-7.25-14.37-14.48-21.72-21.88c0.4-0.35,0.98-0.83,1.51-1.34c2.67-2.59,5.35-5.17,7.98-7.8
			c0.93-0.93,1.87-1.06,3.03-0.52c0.9,0.42,1.83,0.8,2.77,1.07c1.47,0.43,2.63-0.13,3.61-1.25c0.78-0.89,1.62-1.75,2.51-2.54
			c1.6-1.43,1.91-2.83,0.93-4.8c-1.25-2.51-1.05-3.87,0.93-5.92c1.14-1.18,2.35-2.29,3.5-3.45c7.83-7.84,15.64-15.7,23.47-23.53
			c2.35-2.35,5.03-4.23,8.29-5.05c4.33-1.08,8.32-0.01,11.69,2.74c3.22,2.62,6.15,5.58,9.2,8.4c0.94,0.87,1.89,1.72,2.79,2.63
			c0.24,0.24,0.46,0.7,0.38,0.97c-0.08,0.27-0.52,0.55-0.84,0.62c-4.76,0.96-9.53,1.9-14.3,2.82c-3.48,0.67-6.6,2.01-9.25,4.46
			c-2.11,1.95-3.01,4.1-2.33,7.04c0.63,2.75,0.86,5.59,1.19,8.41c0.21,1.79,0.95,3.25,2.22,4.52c4.9,4.88,9.77,9.79,14.66,14.69
			c9.6,9.63,19.21,19.25,28.81,28.88c4.57,4.59,9.13,9.19,13.71,13.77c1.46,1.46,2.99,2.87,4.37,4.18
			c-4.89,4.99-9.88,10.08-14.93,15.23c-0.32-0.28-0.59-0.5-0.84-0.75c-15.63-15.64-31.27-31.29-46.89-46.94
			c-4.27-4.27-8.56-8.52-12.71-12.9c-2.05-2.17-4.43-3.5-7.25-4.39c-1.7-0.54-2.77-0.28-3.82,1.07c-0.6,0.78-1.41,1.41-2.16,2.06
			c-2.11,1.8-2.49,3.59-1.26,6.05c1.05,2.1,0.9,3.04-0.72,4.7C191,72.01,188.16,74.92,185.32,77.83z"/>
	</g>
</g>
</svg>
